<svg width="20" height="129" viewBox="0 0 20 129" fill="none" xmlns="http://www.w3.org/2000/svg">
<ellipse cx="3.11111" cy="3.11111" rx="3.11111" ry="3.11111" transform="translate(7.11108 6.77785) rotate(-90)" fill="#EA414A"/>
<path d="M15.19 13.9521C15.105 13.8448 14.929 13.8657 14.8614 13.9846C14.4949 14.6292 13.3397 16.1888 10.7407 16.1888C7.78972 16.1888 5.38351 13.4241 5.38351 9.94265C5.38351 6.46117 7.78972 3.65113 10.7407 3.65113C13.4257 3.65113 14.5698 5.31563 14.8952 5.91619C14.9445 6.00721 15.0784 6.02087 15.1398 5.93751C15.869 4.94689 16.7319 4.06197 17.7037 3.3079L18.0231 3.06011C18.1288 2.97811 18.1387 2.82183 18.0412 2.73031C16.2175 1.01971 13.4213 0 10.7861 0C4.40382 0 0 4.22222 0 9.89724C0 15.5723 4.44922 19.7945 10.7861 19.7945C13.4254 19.7945 16.2687 18.7717 18.0535 17.0563C18.1435 16.9698 18.1302 16.8235 18.0284 16.7512C17.0879 16.0833 16.2468 15.2855 15.5303 14.3814L15.19 13.9521Z" transform="translate(0 24.5556) rotate(-90)" fill="white"/>
<path d="M16.8481 11.1111C16.8481 5.77777 14.8881 3.5185 12 3.59633C9.55602 3.66218 7.59635 6 7.59635 9.82262V19.0555C7.59635 19.3317 7.37249 19.5555 7.09635 19.5555H3.16667C2.89052 19.5555 2.66667 19.3317 2.66667 19.0555V5.77777C2.66667 1.33333 0 0.444444 0 0.444444L1.33333 0.444444H5.33333C6.34619 0.444444 7.46848 1.11111 7.46848 2.04857C9.01676 0.785719 10.879 0 12.8889 0C17.2718 0 19.6541 1.79803 20.4646 2.55708C20.6555 2.73586 20.6442 3.03159 20.4873 3.24077C19.9034 4.01888 18.6667 6.14788 18.6667 10.2222C18.6667 15.1157 21.2172 17.4587 21.9979 18.0613C22.1343 18.1666 22.2222 18.3269 22.2222 18.4993V19.0555C22.2222 19.3317 21.9984 19.5555 21.7222 19.5555L17.3481 19.5555C17.0719 19.5555 16.8481 19.3317 16.8481 19.0555V11.1111Z" transform="translate(0 45.0001) rotate(-90)" fill="white"/>
<path d="M15.19 13.9521C15.105 13.8448 14.929 13.8657 14.8614 13.9846C14.4949 14.6292 13.3397 16.1888 10.7407 16.1888C7.78972 16.1888 5.38351 13.4241 5.38351 9.94265C5.38351 6.46117 7.78972 3.65113 10.7407 3.65113C13.4257 3.65113 14.5698 5.31563 14.8952 5.91619C14.9445 6.00721 15.0784 6.02087 15.1398 5.93751C15.8691 4.94689 16.7319 4.06197 17.7037 3.3079L18.0231 3.06011C18.1288 2.97811 18.1388 2.82183 18.0412 2.73031C16.2175 1.01971 13.4213 0 10.7861 0C4.40382 0 0 4.22222 0 9.89724C0 15.5723 4.44922 19.7945 10.7861 19.7945C13.4254 19.7945 16.2687 18.7717 18.0535 17.0563C18.1435 16.9698 18.1302 16.8235 18.0284 16.7512C17.0879 16.0833 16.2468 15.2855 15.5303 14.3814L15.19 13.9521Z" transform="translate(0 67.6667) rotate(-90)" fill="white"/>
<path fill-rule="evenodd" clip-rule="evenodd" d="M18.4051 5.3615C18.089 6.81611 17.7778 8.13371 17.7778 10.6667C17.7778 15.0353 20.4097 17.6441 21.1447 18.2874C21.2624 18.3904 21.3333 18.5362 21.3333 18.6926V19.5555H15.5555V16.8889C15.5555 16.8889 14.6667 19.7945 9.4528 19.7945C4.89367 19.7945 0 16.0167 0 10.3417C0 4.22222 4.93906 0 11.2306 0C19.5702 0 19.1994 1.70618 18.4051 5.3615ZM9.85185 15.7443C16.8889 15.791 17.1111 3.65113 10.2963 3.65113C3.48148 3.65113 2.81481 15.6976 9.85185 15.7443Z" transform="translate(0 87.2222) rotate(-90)" fill="white"/>
<path fill-rule="evenodd" clip-rule="evenodd" d="M18.4051 5.3615C18.089 6.81611 17.7778 8.13371 17.7778 10.6667C17.7778 15.0353 20.4097 17.6441 21.1447 18.2874C21.2624 18.3904 21.3333 18.5362 21.3333 18.6926V19.5555H15.5555V16.8889C15.5555 16.8889 14.6667 19.7945 9.4528 19.7945C4.89367 19.7945 0 16.0167 0 10.3417C0 4.22222 4.93906 0 11.2306 0C19.5702 0 19.1994 1.70618 18.4051 5.3615ZM9.85185 15.7443C16.8889 15.791 17.1111 3.65113 10.2963 3.65113C3.48148 3.65113 2.81481 15.6976 9.85185 15.7443Z" transform="translate(0 106.778) rotate(-90)" fill="white"/>
<path d="M8.44444 0C12.8889 6.70718e-06 16.4444 2.22222 16.4444 2.22222C15.6178 3.10232 14.9743 4.138 14.5515 5.26903L14.4444 5.55555C14.4444 5.55555 12.505 3.55555 8.44444 3.55555C6.4899 3.55555 5.33333 4.44444 5.33333 5.33332C5.33333 8.09098 16.8889 6.68897 16.8889 13.3495C16.8889 15.8001 15.1111 19.9912 8.44444 19.9912C3.33333 19.9912 0 18.2134 0 18.2134C0.876654 17.0503 1.46822 15.6978 1.72716 14.2645L1.76768 14.0402C1.76768 14.0402 4.41919 16.1251 8.44444 16.1251C10.3081 16.1251 12.4444 15.5555 12.4444 14.2222C12.4444 9.98381 0.888888 12.6667 0.888888 5.7314C0.888888 3.55146 2.2334 -9.37314e-06 8.44444 0Z" transform="translate(0 122.778) rotate(-90)" fill="white"/>
<path d="M7.59635 19.1111H2.66667V5.33333C2.66667 0.888888 0 0 0 0H5.33333C6.34619 0 7.46847 0.888888 7.46847 2.04857L7.59635 19.1111Z" transform="translate(0.444458 121.404) scale(-1 1) rotate(90)" fill="white"/>
</svg>
